<svg width="98" height="96" viewBox="0 0 98 96" fill="none" xmlns="http://www.w3.org/2000/svg">
<g filter="url(#filter0_d_2_8)">
<path d="M48.6336 5C26.736 4.99115 9 22.7183 9 44.5982C9 61.9003 20.0949 76.608 35.5464 82.0093C37.6272 82.5318 37.3085 81.053 37.3085 80.0436V73.1812C25.2927 74.5891 24.8056 66.6376 23.9999 65.3094C22.3706 62.529 18.5188 61.8206 19.6699 60.4924C22.406 59.0845 25.1952 60.8466 28.4272 65.6193C30.7649 69.0815 35.325 68.4971 37.6361 67.9215C38.1408 65.8407 39.2211 63.9812 40.7087 62.5379C28.259 60.3065 23.0701 52.7091 23.0701 43.6773C23.0701 39.2943 24.5134 35.2654 27.3469 32.0157C25.5406 26.6586 27.5152 22.0719 27.7808 21.3901C32.9254 20.9296 38.2736 25.0736 38.6898 25.4012C41.6119 24.6132 44.9501 24.197 48.6868 24.197C52.4412 24.197 55.7882 24.6309 58.7369 25.4278C59.7374 24.6663 64.6961 21.1067 69.4776 21.5406C69.7344 22.2224 71.6647 26.7029 69.9646 31.9891C72.8335 35.2477 74.2946 39.312 74.2946 43.7039C74.2946 52.7534 69.0703 60.3596 56.5852 62.5556C57.6546 63.6072 58.5037 64.8614 59.0829 66.2449C59.6621 67.6284 59.9599 69.1135 59.9588 70.6133V80.5749C60.0296 81.3718 59.9588 82.1599 61.287 82.1599C76.9687 76.8736 88.2584 62.0597 88.2584 44.6071C88.2584 22.7183 70.5136 5 48.6336 5Z" fill="black"/>
<path d="M48.6336 5C26.736 4.99115 9 22.7183 9 44.5982C9 61.9003 20.0949 76.608 35.5464 82.0093C37.6272 82.5318 37.3085 81.053 37.3085 80.0436V73.1812C25.2927 74.5891 24.8056 66.6376 23.9999 65.3094C22.3706 62.529 18.5188 61.8206 19.6699 60.4924C22.406 59.0845 25.1952 60.8466 28.4272 65.6193C30.7649 69.0815 35.325 68.4971 37.6361 67.9215C38.1408 65.8407 39.2211 63.9812 40.7087 62.5379C28.259 60.3065 23.0701 52.7091 23.0701 43.6773C23.0701 39.2943 24.5134 35.2654 27.3469 32.0157C25.5406 26.6586 27.5152 22.0719 27.7808 21.3901C32.9254 20.9296 38.2736 25.0736 38.6898 25.4012C41.6119 24.6132 44.9501 24.197 48.6868 24.197C52.4412 24.197 55.7882 24.6309 58.7369 25.4278C59.7374 24.6663 64.6961 21.1067 69.4776 21.5406C69.7344 22.2224 71.6647 26.7029 69.9646 31.9891C72.8335 35.2477 74.2946 39.312 74.2946 43.7039C74.2946 52.7534 69.0703 60.3596 56.5852 62.5556C57.6546 63.6072 58.5037 64.8614 59.0829 66.2449C59.6621 67.6284 59.9599 69.1135 59.9588 70.6133V80.5749C60.0296 81.3718 59.9588 82.1599 61.287 82.1599C76.9687 76.8736 88.2584 62.0597 88.2584 44.6071C88.2584 22.7183 70.5136 5 48.6336 5Z" stroke="black"/>
</g>
<defs>
<filter id="filter0_d_2_8" x="0" y="0" width="97.2584" height="95.1599" filterUnits="userSpaceOnUse" color-interpolation-filters="sRGB">
<feFlood flood-opacity="0" result="BackgroundImageFix"/>
<feColorMatrix in="SourceAlpha" type="matrix" values="0 0 0 0 0 0 0 0 0 0 0 0 0 0 0 0 0 0 127 0" result="hardAlpha"/>
<feOffset dy="4"/>
<feGaussianBlur stdDeviation="4.5"/>
<feComposite in2="hardAlpha" operator="out"/>
<feColorMatrix type="matrix" values="0 0 0 0 0 0 0 0 0 0 0 0 0 0 0 0 0 0 0.25 0"/>
<feBlend mode="normal" in2="BackgroundImageFix" result="effect1_dropShadow_2_8"/>
<feBlend mode="normal" in="SourceGraphic" in2="effect1_dropShadow_2_8" result="shape"/>
</filter>
</defs>
</svg>
