<svg width="80" height="79" viewBox="0 0 80 79" fill="none" xmlns="http://www.w3.org/2000/svg">
<g filter="url(#filter0_d_2_11)">
<path d="M72.2625 0.161133H7.09193C5.52465 0.161133 4.25842 1.42736 4.25842 2.99464V68.1652C4.25842 69.7325 5.52465 70.9987 7.09193 70.9987H72.2625C73.8298 70.9987 75.096 69.7325 75.096 68.1652V2.99464C75.096 1.42736 73.8298 0.161133 72.2625 0.161133ZM25.2706 60.5236H14.7601V26.7164H25.2706V60.5236ZM20.0198 22.0942C18.8149 22.0942 17.6371 21.7369 16.6352 21.0675C15.6334 20.3981 14.8526 19.4467 14.3915 18.3335C13.9304 17.2203 13.8098 15.9954 14.0448 14.8137C14.2799 13.632 14.8601 12.5465 15.7121 11.6945C16.5641 10.8425 17.6496 10.2623 18.8313 10.0272C20.013 9.79215 21.2379 9.9128 22.3511 10.3739C23.4643 10.835 24.4157 11.6158 25.0851 12.6176C25.7545 13.6195 26.1118 14.7973 26.1118 16.0022C26.103 19.367 23.3757 22.0942 20.0198 22.0942ZM64.6209 60.5236H54.1192V44.0805C54.1192 40.1578 54.0484 35.1195 48.6559 35.1195C43.1926 35.1195 42.3514 39.3875 42.3514 43.7971V60.5236H31.8585V26.7164H41.9352V31.3385H42.0769C43.4759 28.6821 46.9027 25.8752 52.0207 25.8752C62.664 25.8752 64.6209 32.8793 64.6209 41.9819V60.5236Z" fill="black"/>
<path d="M72.2625 0.161133H7.09193C5.52465 0.161133 4.25842 1.42736 4.25842 2.99464V68.1652C4.25842 69.7325 5.52465 70.9987 7.09193 70.9987H72.2625C73.8298 70.9987 75.096 69.7325 75.096 68.1652V2.99464C75.096 1.42736 73.8298 0.161133 72.2625 0.161133ZM25.2706 60.5236H14.7601V26.7164H25.2706V60.5236ZM20.0198 22.0942C18.8149 22.0942 17.6371 21.7369 16.6352 21.0675C15.6334 20.3981 14.8526 19.4467 14.3915 18.3335C13.9304 17.2203 13.8098 15.9954 14.0448 14.8137C14.2799 13.632 14.8601 12.5465 15.7121 11.6945C16.5641 10.8425 17.6496 10.2623 18.8313 10.0272C20.013 9.79215 21.2379 9.9128 22.3511 10.3739C23.4643 10.835 24.4157 11.6158 25.0851 12.6176C25.7545 13.6195 26.1118 14.7973 26.1118 16.0022C26.103 19.367 23.3757 22.0942 20.0198 22.0942ZM64.6209 60.5236H54.1192V44.0805C54.1192 40.1578 54.0484 35.1195 48.6559 35.1195C43.1926 35.1195 42.3514 39.3875 42.3514 43.7971V60.5236H31.8585V26.7164H41.9352V31.3385H42.0769C43.4759 28.6821 46.9027 25.8752 52.0207 25.8752C62.664 25.8752 64.6209 32.8793 64.6209 41.9819V60.5236Z" stroke="black"/>
</g>
<defs>
<filter id="filter0_d_2_11" x="0.258423" y="0.161133" width="78.8376" height="78.8376" filterUnits="userSpaceOnUse" color-interpolation-filters="sRGB">
<feFlood flood-opacity="0" result="BackgroundImageFix"/>
<feColorMatrix in="SourceAlpha" type="matrix" values="0 0 0 0 0 0 0 0 0 0 0 0 0 0 0 0 0 0 127 0" result="hardAlpha"/>
<feOffset dy="4"/>
<feGaussianBlur stdDeviation="2"/>
<feComposite in2="hardAlpha" operator="out"/>
<feColorMatrix type="matrix" values="0 0 0 0 0 0 0 0 0 0 0 0 0 0 0 0 0 0 0.25 0"/>
<feBlend mode="normal" in2="BackgroundImageFix" result="effect1_dropShadow_2_11"/>
<feBlend mode="normal" in="SourceGraphic" in2="effect1_dropShadow_2_11" result="shape"/>
</filter>
</defs>
</svg>
