<svg width="41" height="40" viewBox="0 0 41 40" fill="none" xmlns="http://www.w3.org/2000/svg">
<g clip-path="url(#clip0_2_51)">
<path d="M30.9585 0H9.7085C4.53083 0 0.333496 4.19733 0.333496 9.375V30.625C0.333496 35.8027 4.53083 40 9.7085 40H30.9585C36.1362 40 40.3335 35.8027 40.3335 30.625V9.375C40.3335 4.19733 36.1362 0 30.9585 0Z" fill="black"/>
<path d="M19.3102 4.38338C19.243 4.38949 19.0291 4.41088 18.8366 4.42614C14.3981 4.82632 10.2406 7.22124 7.60745 10.9022C6.14117 12.9489 5.20337 15.2705 4.84901 17.7295C4.72378 18.588 4.7085 18.8416 4.7085 20.0053C4.7085 21.1692 4.72378 21.4228 4.84901 22.2811C5.69823 28.1492 9.87406 33.0797 15.5376 34.9064C16.5518 35.2333 17.6208 35.4562 18.8366 35.5906C19.3102 35.6425 21.3568 35.6425 21.8304 35.5906C23.929 35.3584 25.7068 34.8392 27.4602 33.9441C27.729 33.8067 27.781 33.77 27.7443 33.7395C27.7199 33.7211 26.5743 32.1845 25.1997 30.3273L22.701 26.9519L19.5697 22.3178C17.8469 19.7701 16.4296 17.6867 16.4172 17.6867C16.4051 17.6837 16.3929 19.7426 16.3868 22.2567C16.3776 26.6586 16.3746 26.8358 16.3196 26.9395C16.2402 27.0892 16.1791 27.1503 16.0507 27.2176C15.953 27.2664 15.8675 27.2756 15.4062 27.2756H14.8777L14.7372 27.187C14.6456 27.1291 14.5784 27.0526 14.5325 26.9641L14.4684 26.8266L14.4745 20.7019L14.4837 14.574L14.5784 14.4549C14.6272 14.3907 14.7311 14.3082 14.8044 14.2685C14.9297 14.2074 14.9785 14.2013 15.507 14.2013C16.1302 14.2013 16.234 14.2258 16.396 14.4029C16.4418 14.4518 18.1371 17.0056 20.1655 20.0817C22.1938 23.1578 24.9676 27.3581 26.3299 29.42L28.8043 33.1683L28.9296 33.0858C30.0383 32.3648 31.2115 31.3384 32.1401 30.2692C34.1165 27.9995 35.3904 25.232 35.818 22.2811C35.9432 21.4228 35.9585 21.1692 35.9585 20.0053C35.9585 18.8416 35.9432 18.588 35.818 17.7295C34.9688 11.8614 30.7929 6.93104 25.1294 5.1043C24.1305 4.7805 23.0676 4.5575 21.8762 4.4231C21.5829 4.39255 19.5637 4.35894 19.3102 4.38338ZM25.7068 13.8348C25.8533 13.9081 25.9726 14.0486 26.0154 14.1952C26.0397 14.2746 26.0458 15.9731 26.0397 19.8006L26.0305 25.2931L25.0622 23.8084L24.0908 22.3239V18.3314C24.0908 15.7501 24.103 14.2991 24.1213 14.2288C24.1702 14.0578 24.2771 13.9233 24.4238 13.8439C24.549 13.7798 24.5949 13.7737 25.0744 13.7737C25.5266 13.7737 25.606 13.7798 25.7068 13.8348Z" fill="white"/>
</g>
<defs>
<clipPath id="clip0_2_51">
<rect width="40" height="40" fill="white" transform="translate(0.333496)"/>
</clipPath>
</defs>
</svg>
