<svg width="40" height="40" viewBox="0 0 40 40" fill="none" xmlns="http://www.w3.org/2000/svg">
<g clip-path="url(#clip0_2_47)">
<path d="M30.625 0H9.375C4.19733 0 0 4.19733 0 9.375V30.625C0 35.8027 4.19733 40 9.375 40H30.625C35.8027 40 40 35.8027 40 30.625V9.375C40 4.19733 35.8027 0 30.625 0Z" fill="black"/>
<path d="M18.7309 4.86194C19.4995 4.422 20.5005 4.42005 21.2683 4.86194C25.1311 7.04461 28.9952 9.22394 32.8573 11.4079C33.5839 11.8171 34.0697 12.6256 34.0623 13.4626V26.5947C34.0678 27.4664 33.5339 28.2942 32.7675 28.6941C28.9173 30.8648 25.0691 33.0381 21.2195 35.2089C20.4353 35.6573 19.4142 35.6228 18.6542 35.1375C17.5 34.4684 16.3438 33.8025 15.1894 33.1341C14.9535 32.9934 14.6876 32.8816 14.521 32.6528C14.6682 32.4544 14.9315 32.4297 15.1455 32.343C15.6272 32.1897 16.0698 31.9437 16.5123 31.7052C16.6244 31.6286 16.7609 31.658 16.8683 31.7264C17.8553 32.2923 18.8338 32.8748 19.8241 33.4353C20.0353 33.5573 20.2492 33.3953 20.4298 33.2947C24.208 31.1592 27.9908 29.032 31.7684 26.8959C31.9084 26.8286 31.9858 26.68 31.9744 26.5267C31.977 22.1947 31.975 17.862 31.9758 13.53C31.9917 13.356 31.8911 13.1961 31.7338 13.1248C27.897 10.9641 24.062 8.80008 20.2259 6.63878C20.0898 6.5452 19.9103 6.54497 19.7741 6.63808C15.9378 8.80008 12.1037 10.9661 8.26756 13.1267C8.11081 13.198 8.00563 13.3554 8.02428 13.53C8.02494 17.862 8.02428 22.1947 8.02428 26.5273C8.01066 26.6806 8.09391 26.8261 8.23291 26.892C9.2566 27.4725 10.2816 28.0489 11.306 28.6275C11.8831 28.938 12.5916 29.1227 13.2274 28.8847C13.7885 28.6834 14.1818 28.1108 14.1711 27.5152C14.1764 23.2084 14.1684 18.9011 14.175 14.595C14.1611 14.4038 14.3424 14.2458 14.5283 14.2638C15.0202 14.2605 15.5127 14.2572 16.0045 14.2652C16.2098 14.2605 16.3511 14.4664 16.3258 14.659C16.3238 18.993 16.3311 23.327 16.3225 27.6609C16.3238 28.8161 15.8492 30.073 14.7808 30.6381C13.4646 31.3198 11.8378 31.1753 10.5375 30.5216C9.4118 29.9597 8.33755 29.2966 7.23184 28.6947C6.46345 28.297 5.93219 27.4659 5.9376 26.5948V13.4626C5.92953 12.6083 6.43477 11.7851 7.18381 11.382C11.0333 9.2095 14.8822 7.03533 18.7309 4.86194Z" fill="white"/>
<path d="M22.0894 13.9586C23.7683 13.8505 25.5657 13.8946 27.0765 14.7216C28.2463 15.3555 28.8947 16.6858 28.9154 17.9853C28.8827 18.1605 28.6994 18.2572 28.5321 18.2452C28.045 18.2445 27.5577 18.2519 27.0707 18.2419C26.864 18.2499 26.744 18.0594 26.718 17.8767C26.578 17.2549 26.2388 16.6391 25.6536 16.3391C24.7552 15.8894 23.7136 15.912 22.734 15.9214C22.0188 15.9592 21.2497 16.0213 20.6438 16.4417C20.1786 16.7603 20.0374 17.4034 20.2033 17.9214C20.3599 18.2933 20.7891 18.4133 21.1405 18.5239C23.1638 19.0531 25.3079 19.0003 27.2925 19.6967C28.1143 19.9806 28.918 20.5327 29.1993 21.393C29.5672 22.5461 29.406 23.9242 28.5855 24.8499C27.9202 25.6116 26.9513 26.0263 25.9849 26.2514C24.6993 26.5381 23.365 26.5455 22.0594 26.4181C20.8318 26.2781 19.5541 25.9556 18.6065 25.1192C17.796 24.4155 17.4002 23.3189 17.4394 22.2608C17.4488 22.082 17.6268 21.9574 17.798 21.972C18.2885 21.9681 18.7791 21.9667 19.2696 21.9728C19.4657 21.9588 19.6108 22.1281 19.621 22.3128C19.7113 22.9052 19.934 23.527 20.4507 23.8781C21.4475 24.5214 22.6986 24.4774 23.8402 24.4953C24.786 24.4534 25.8477 24.4408 26.6194 23.8156C27.0266 23.4591 27.1472 22.8625 27.0372 22.3494C26.918 21.9161 26.4647 21.7142 26.0755 21.5822C24.0782 20.9505 21.91 21.1797 19.9321 20.4652C19.129 20.1814 18.3524 19.6449 18.044 18.8199C17.6135 17.6522 17.8107 16.2078 18.7171 15.3135C19.6008 14.4238 20.8765 14.0812 22.0894 13.9586Z" fill="white"/>
</g>
<defs>
<clipPath id="clip0_2_47">
<rect width="40" height="40" fill="white"/>
</clipPath>
</defs>
</svg>
