<svg width="41" height="40" viewBox="0 0 41 40" fill="none" xmlns="http://www.w3.org/2000/svg">
<g clip-path="url(#clip0_3_118)">
<g clip-path="url(#clip1_3_118)">
<path d="M30.9583 0H9.70825C4.53058 0 0.333252 4.19733 0.333252 9.375V30.625C0.333252 35.8027 4.53058 40 9.70825 40H30.9583C36.1359 40 40.3333 35.8027 40.3333 30.625V9.375C40.3333 4.19733 36.1359 0 30.9583 0Z" fill="black"/>
<path d="M8.01419 15.6635H12.4529C13.7558 15.6744 14.6998 16.05 15.2851 16.7897C15.8704 17.5294 16.0636 18.5397 15.8648 19.8206C15.7876 20.406 15.6164 20.98 15.3514 21.5431C15.0973 22.1063 14.7442 22.6141 14.2914 23.0669C13.7392 23.641 13.1486 24.0053 12.5192 24.16C11.8898 24.3147 11.2383 24.3919 10.5648 24.3919H8.57731L7.94794 27.5388H5.64575L8.01419 15.6635ZM9.952 17.5516L8.95825 22.5203C9.0245 22.5313 9.09075 22.5369 9.157 22.5369C9.23419 22.5369 9.31169 22.5369 9.38888 22.5369C10.4489 22.5478 11.3323 22.4431 12.0389 22.2222C12.7454 21.9903 13.2204 21.1844 13.4633 19.8041C13.662 18.6447 13.4633 17.9766 12.867 17.8C12.2817 17.6235 11.5476 17.5406 10.6642 17.5516C10.5317 17.5625 10.4048 17.5681 10.2833 17.5681C10.1729 17.5681 10.057 17.5681 9.93544 17.5681L9.952 17.5516Z" fill="white"/>
<path d="M18.4873 12.5H20.7729L20.127 15.6634H22.1807C23.307 15.6856 24.146 15.9175 24.6982 16.3591C25.2614 16.8006 25.427 17.64 25.1951 18.8766L24.0854 24.3919H21.7667L22.8267 19.125C22.937 18.5728 22.9039 18.1809 22.7273 17.9491C22.5507 17.7172 22.1698 17.6013 21.5845 17.6013L19.746 17.5847L18.3879 24.3919H16.1023L18.4873 12.5Z" fill="white"/>
<path d="M27.6494 15.6635H32.0882C33.391 15.6744 34.3351 16.05 34.9204 16.7897C35.5057 17.5294 35.6988 18.5397 35.5001 19.8206C35.4229 20.406 35.2516 20.98 34.9866 21.5431C34.7326 22.1063 34.3794 22.6141 33.9266 23.0669C33.3744 23.641 32.7838 24.0053 32.1544 24.16C31.5251 24.3147 30.8735 24.3919 30.2001 24.3919H28.2126L27.5832 27.5388H25.281L27.6494 15.6635ZM29.5873 17.5516L28.5935 22.5203C28.6598 22.5313 28.726 22.5369 28.7923 22.5369C28.8694 22.5369 28.9469 22.5369 29.0241 22.5369C30.0841 22.5478 30.9676 22.4431 31.6741 22.2222C32.3807 21.9903 32.8557 21.1844 33.0985 19.8041C33.2973 18.6447 33.0985 17.9766 32.5023 17.8C31.9169 17.6235 31.1829 17.5406 30.2994 17.5516C30.1669 17.5625 30.0401 17.5681 29.9185 17.5681C29.8082 17.5681 29.6923 17.5681 29.5707 17.5681L29.5873 17.5516Z" fill="white"/>
</g>
</g>
<defs>
<clipPath id="clip0_3_118">
<rect width="40" height="40" fill="white" transform="translate(0.333252)"/>
</clipPath>
<clipPath id="clip1_3_118">
<rect width="40" height="40" fill="white" transform="translate(0.333252)"/>
</clipPath>
</defs>
</svg>
