<svg width="41" height="40" viewBox="0 0 41 40" fill="none" xmlns="http://www.w3.org/2000/svg">
<g clip-path="url(#clip0_3_115)">
<path d="M31.2915 0H10.0415C4.86383 0 0.666504 4.19733 0.666504 9.375V30.625C0.666504 35.8027 4.86383 40 10.0415 40H31.2915C36.4692 40 40.6665 35.8027 40.6665 30.625V9.375C40.6665 4.19733 36.4692 0 31.2915 0Z" fill="black"/>
<path fill-rule="evenodd" clip-rule="evenodd" d="M8.89436 25.8099C8.59481 25.3374 8.5903 24.7355 8.88269 24.2584L19.8921 6.29994C20.5045 5.3011 21.9831 5.38843 22.4735 6.45241L32.5312 28.2697C32.9043 29.0792 32.4748 30.0317 31.6209 30.288L15.9756 34.9816C15.3461 35.1703 14.6678 34.9174 14.316 34.3622L8.89436 25.8099ZM21.1623 11.5509C21.2684 11.0226 21.9923 10.9464 22.206 11.441L29.1437 27.4942C29.2743 27.7966 29.1118 28.1452 28.7962 28.2392L17.9865 31.4661C17.5892 31.5847 17.2085 31.2375 17.2903 30.8309L21.1623 11.5509Z" fill="#F7FAFC"/>
</g>
<defs>
<clipPath id="clip0_3_115">
<rect width="40" height="40" fill="white" transform="translate(0.666504)"/>
</clipPath>
</defs>
</svg>
