<svg width="41" height="40" viewBox="0 0 41 40" fill="none" xmlns="http://www.w3.org/2000/svg">
<g clip-path="url(#clip0_3_84)">
<path d="M31.2917 0H10.0417C4.86408 0 0.666748 4.19733 0.666748 9.375V30.625C0.666748 35.8027 4.86408 40 10.0417 40H31.2917C36.4694 40 40.6667 35.8027 40.6667 30.625V9.375C40.6667 4.19733 36.4694 0 31.2917 0Z" fill="black"/>
<path d="M20.5541 4.53125C12.6209 4.53125 13.1163 7.97156 13.1163 7.97156L13.1252 11.5357H20.6957V12.6058H10.1182C10.1182 12.6058 5.04175 12.0301 5.04175 20.0347C5.04175 28.0394 9.47258 27.7556 9.47258 27.7556H12.1169V24.0411C12.1169 24.0411 11.9744 19.6103 16.4771 19.6103H23.9855C23.9855 19.6103 28.2041 19.6784 28.2041 15.5332V8.67908C28.2041 8.67908 28.8446 4.53125 20.5541 4.53125ZM16.3797 6.92797C17.133 6.92797 17.7417 7.53673 17.7417 8.28994C17.7417 9.04314 17.133 9.65192 16.3797 9.65192C15.6265 9.65192 15.0178 9.04314 15.0178 8.28994C15.0178 7.53673 15.6265 6.92797 16.3797 6.92797Z" fill="url(#paint0_linear_3_84)"/>
<path d="M20.7794 35.6184C28.7126 35.6184 28.2173 32.1783 28.2173 32.1783L28.2083 28.6141H20.6379V27.5439H31.2154C31.2154 27.5439 36.2918 28.1197 36.2918 20.115C36.2918 12.1103 31.861 12.3942 31.861 12.3942H29.2166V16.1088C29.2166 16.1088 29.3591 20.5395 24.8565 20.5395H17.348C17.348 20.5395 13.1294 20.4713 13.1294 24.6166V31.4706C13.1294 31.4706 12.4889 35.6184 20.7794 35.6184ZM24.9538 33.2217C24.2005 33.2217 23.5918 32.613 23.5918 31.8598C23.5918 31.1066 24.2005 30.4978 24.9538 30.4978C25.7069 30.4978 26.3158 31.1066 26.3158 31.8598C26.3158 32.613 25.7069 33.2217 24.9538 33.2217Z" fill="url(#paint1_linear_3_84)"/>
</g>
<defs>
<linearGradient id="paint0_linear_3_84" x1="8.04487" y1="7.3275" x2="23.5313" y2="22.6594" gradientUnits="userSpaceOnUse">
<stop stop-color="#F2F2F2"/>
<stop offset="1" stop-color="white"/>
</linearGradient>
<linearGradient id="paint1_linear_3_84" x1="17.5505" y1="17.1727" x2="34.1812" y2="32.8941" gradientUnits="userSpaceOnUse">
<stop stop-color="#CBCBCB"/>
<stop offset="1" stop-color="white"/>
</linearGradient>
<clipPath id="clip0_3_84">
<rect width="40" height="40" fill="white" transform="translate(0.666748)"/>
</clipPath>
</defs>
</svg>
