<svg width="41" height="40" viewBox="0 0 41 40" fill="none" xmlns="http://www.w3.org/2000/svg">
<g clip-path="url(#clip0_2_41)">
<path d="M30.9583 0H9.70825C4.53058 0 0.333252 4.19733 0.333252 9.375V30.625C0.333252 35.8027 4.53058 40 9.70825 40H30.9583C36.1359 40 40.3333 35.8027 40.3333 30.625V9.375C40.3333 4.19733 36.1359 0 30.9583 0Z" fill="black"/>
<path d="M9.17872 20.1326L9.16602 21.7708H11.7692H14.3724V29.1676V36.5644H16.2137H18.0549V29.1676V21.7708H20.6581H23.2612V20.1644C23.2612 19.2755 23.2423 18.5326 23.2168 18.5136C23.1978 18.4883 20.0295 18.4755 16.1882 18.4819L9.19777 18.5009L9.17872 20.1326Z" fill="white"/>
<path d="M32.6092 18.4544C33.625 18.7084 34.3997 19.1592 35.1108 19.8956C35.4791 20.2894 36.025 21.0069 36.0695 21.1783C36.0822 21.2291 34.3425 22.3974 33.2886 23.0513C33.2505 23.0767 33.098 22.9116 32.9266 22.6577C32.4124 21.9085 31.8727 21.5845 31.0472 21.5275C29.8346 21.4449 29.0536 22.0799 29.06 23.1402C29.06 23.4513 29.1044 23.6353 29.2314 23.8894C29.498 24.4417 29.9933 24.7719 31.5489 25.4449C34.4124 26.6767 35.6377 27.4894 36.3997 28.6449C37.2505 29.9338 37.441 31.991 36.8631 33.5211C36.2283 35.1845 34.6536 36.3147 32.4377 36.6894C31.752 36.81 30.1266 36.7909 29.3902 36.6577C27.7838 36.3719 26.26 35.5783 25.3203 34.537C24.952 34.1306 24.2345 33.0703 24.2791 32.9941C24.298 32.9688 24.4631 32.8672 24.6472 32.7592C24.825 32.6577 25.4981 32.2703 26.133 31.902L27.2822 31.2353L27.5235 31.591C27.86 32.1052 28.5964 32.81 29.041 33.0449C30.317 33.718 32.0696 33.6227 32.933 32.8481C33.3013 32.5116 33.4536 32.1624 33.4536 31.6481C33.4536 31.1845 33.3964 30.9814 33.1552 30.6322C32.8441 30.1878 32.2092 29.8131 30.406 29.0322C28.3425 28.1433 27.4536 27.591 26.641 26.7147C26.1711 26.2069 25.7266 25.3941 25.5425 24.7147C25.3902 24.1497 25.3521 22.7338 25.4727 22.1624C25.898 20.1688 27.4028 18.7783 29.5742 18.3655C30.2791 18.2322 31.9171 18.283 32.6092 18.4544Z" fill="white"/>
</g>
<defs>
<clipPath id="clip0_2_41">
<rect width="40" height="40" fill="white" transform="translate(0.333252)"/>
</clipPath>
</defs>
</svg>
