<svg width="41" height="40" viewBox="0 0 41 40" fill="none" xmlns="http://www.w3.org/2000/svg">
<g clip-path="url(#clip0_3_101)">
<path d="M30.9583 0H9.70825C4.53058 0 0.333252 4.19733 0.333252 9.375V30.625C0.333252 35.8027 4.53058 40 9.70825 40H30.9583C36.1359 40 40.3333 35.8027 40.3333 30.625V9.375C40.3333 4.19733 36.1359 0 30.9583 0Z" fill="black"/>
<path d="M5.68481 9.55078L20.2278 4.375L35.1536 9.4707L32.7414 28.7031L20.2278 35.625L7.91724 28.793L5.68481 9.55078Z" fill="#6B6B6B"/>
<path d="M35.1536 9.4707L20.2278 4.375V35.625L32.7414 28.7031L35.1536 9.4707Z" fill="#6B6B6B"/>
<path d="M20.2503 8.02734L11.1877 28.1836L14.5696 28.1152L16.3957 23.5606H24.5012L26.4856 28.1505L29.7101 28.2188L20.2503 8.02734ZM20.2726 14.498L23.339 20.9014H17.5989L20.2815 14.498H20.2726Z" fill="white"/>
</g>
<defs>
<clipPath id="clip0_3_101">
<rect width="40" height="40" fill="white" transform="translate(0.333252)"/>
</clipPath>
</defs>
</svg>
