<svg width="41" height="40" viewBox="0 0 41 40" fill="none" xmlns="http://www.w3.org/2000/svg">
<g clip-path="url(#clip0_2_64)">
<path d="M31.2917 0H10.0417C4.86408 0 0.666748 4.19733 0.666748 9.375V30.625C0.666748 35.8027 4.86408 40 10.0417 40H31.2917C36.4694 40 40.6667 35.8027 40.6667 30.625V9.375C40.6667 4.19733 36.4694 0 31.2917 0Z" fill="black"/>
<path d="M36.2917 28.5839C35.8369 28.7563 35.3347 28.7558 34.88 28.583C34.4255 28.41 34.0499 28.0766 33.8244 27.6456C32.4083 25.5258 30.8446 23.5016 29.3416 21.4339L28.6899 20.5652C26.9002 22.963 25.1105 25.2652 23.4772 27.6544C23.2644 28.0663 22.9092 28.3867 22.4777 28.5561C22.0461 28.7256 21.5677 28.7324 21.1316 28.5753L27.8472 19.5661L21.6007 11.4256C22.0503 11.2632 22.5422 11.261 22.9933 11.4193C23.4444 11.5775 23.8271 11.8866 24.0767 12.2944C25.5275 14.4142 27.1349 16.4384 28.7333 18.5844C30.3407 16.4558 31.9305 14.4229 33.4161 12.3204C33.63 11.9152 33.9855 11.6028 34.4149 11.4426C34.8441 11.2824 35.3174 11.2857 35.7444 11.4516L33.3205 14.6661C32.2346 16.0995 31.166 17.5417 30.0366 18.9405C29.9455 19.022 29.8727 19.1217 29.8228 19.2333C29.773 19.3449 29.7472 19.4656 29.7472 19.5878C29.7472 19.7099 29.773 19.8306 29.8228 19.9422C29.8727 20.0538 29.9455 20.1534 30.0366 20.235C32.113 22.9891 34.1719 25.7517 36.2917 28.5839Z" fill="white"/>
<path d="M5.04175 19.4531C5.22419 18.5844 5.33714 17.6373 5.58908 16.7513C7.09206 11.4083 13.217 9.18419 17.4305 12.4943C19.8978 14.4316 20.5147 17.177 20.3932 20.2698H6.49261C6.26673 25.7953 10.2544 29.1314 15.3542 27.4286C16.1814 27.1327 16.9219 26.6355 17.5089 25.9817C18.096 25.328 18.5108 24.5383 18.7163 23.6841C18.9857 22.8153 19.42 22.6677 20.2453 22.9195C20.1094 23.9772 19.7355 24.9903 19.1516 25.8827C18.5678 26.775 17.7892 27.5233 16.8746 28.0714C15.3632 28.898 13.6292 29.2253 11.9206 29.0069C10.212 28.7884 8.61617 28.0353 7.36139 26.8552C6.12004 25.4594 5.36945 23.6959 5.22419 21.8336C5.22419 21.5383 5.11125 21.2428 5.05044 20.9648C5.04464 20.4494 5.04175 19.9455 5.04175 19.4531ZM6.50998 19.0795H19.0813C19.003 15.0745 16.4749 12.2336 13.104 12.2075C9.35089 12.1554 6.66637 14.9355 6.50129 19.0622L6.50998 19.0795Z" fill="white"/>
</g>
<defs>
<clipPath id="clip0_2_64">
<rect width="40" height="40" fill="white" transform="translate(0.666748)"/>
</clipPath>
</defs>
</svg>
