<svg width="40" height="40" viewBox="0 0 40 40" fill="none" xmlns="http://www.w3.org/2000/svg">
<path d="M30.625 0H9.375C4.19733 0 0 4.19733 0 9.375V30.625C0 35.8027 4.19733 40 9.375 40H30.625C35.8027 40 40 35.8027 40 30.625V9.375C40 4.19733 35.8027 0 30.625 0Z" fill="black"/>
<path d="M31.9458 20.0031C31.9458 13.41 26.593 8.05786 20 8.05786C13.407 8.05786 8.0542 13.41 8.0542 20.0031C8.0542 26.5967 13.407 31.9489 20 31.9489C26.593 31.9489 31.9458 26.5967 31.9458 20.0031Z" fill="white"/>
<path d="M28.4479 15.0537C28.4479 13.1232 26.8806 11.5558 24.9501 11.5558C23.0195 11.5558 21.4521 13.1232 21.4521 15.0537C21.4521 16.9836 23.0195 18.5516 24.9501 18.5516C26.8806 18.5516 28.4479 16.9836 28.4479 15.0537Z" fill="black"/>
<path d="M35.4437 8.0542C35.4437 6.12365 33.8763 4.55627 31.9457 4.55627C30.0153 4.55627 28.4478 6.12365 28.4478 8.0542C28.4478 9.98473 30.0153 11.5521 31.9457 11.5521C33.8763 11.5521 35.4437 9.9884 35.4437 8.0542Z" fill="white"/>
<path d="M12.8918 25.0916H16.7627V25.973H11.8921V18.1353H12.8918V25.0916Z" fill="black"/>
<path d="M21.3861 25.973V25.1873C20.8581 25.9302 20.3332 26.2202 19.505 26.2202C18.4093 26.2202 17.71 25.6195 17.71 24.6827V20.34H18.6011V24.3292C18.6011 25.0061 19.0526 25.4383 19.7625 25.4383C20.6964 25.4383 21.3 24.6856 21.3 23.5339V20.34H22.1911V25.973H21.3861Z" fill="black"/>
<path d="M28.7413 26.1248C28.4509 26.2006 28.3123 26.2202 28.1274 26.2202C27.547 26.2202 27.2662 25.9631 27.2034 25.3919C26.5698 25.973 25.9992 26.2202 25.2898 26.2202C24.1509 26.2202 23.4417 25.5767 23.4417 24.5539C23.4417 23.8214 23.7749 23.3167 24.4317 23.0494C24.7748 22.9108 24.9695 22.8675 26.2365 22.7056C26.9463 22.6203 27.1704 22.4584 27.1704 22.0825V21.8445C27.1704 21.3067 26.7187 21.0064 25.9137 21.0064C25.0749 21.0064 24.666 21.3166 24.5904 22.0063H23.6859C23.709 21.4484 23.8146 21.1255 24.0721 20.835C24.4482 20.4156 25.1245 20.1783 25.9429 20.1783C27.329 20.1783 28.0615 20.7159 28.0615 21.7156V25.0294C28.0615 25.3094 28.2329 25.4713 28.5467 25.4713C28.5992 25.4713 28.6426 25.4713 28.7413 25.448V26.1248ZM27.1704 23.1878C26.8701 23.3264 26.6754 23.3691 25.7287 23.498C24.7717 23.6364 24.3724 23.9398 24.3724 24.5306C24.3724 25.1019 24.7815 25.4352 25.4809 25.4352C26.0088 25.4352 26.4477 25.2631 26.8145 24.9298C27.0812 24.6827 27.1704 24.5014 27.1704 24.1973V23.1878Z" fill="black"/>
<path d="M33.7641 12.9877C34.8694 15.1593 35.4467 17.5616 35.4467 20C35.4467 28.5272 28.5272 35.4467 20 35.4467C11.4728 35.4467 4.55322 28.5272 4.55322 20C4.55322 11.4728 11.4728 4.55322 20 4.55322C22.7423 4.55322 25.4316 5.2826 27.7942 6.66199" stroke="#808080" stroke-width="2.294" stroke-miterlimit="10" stroke-dasharray="8.63 8.63"/>
</svg>
