<svg width="40" height="40" viewBox="0 0 40 40" fill="none" xmlns="http://www.w3.org/2000/svg">
<g clip-path="url(#clip0_3_106)">
<mask id="mask0_3_106" style="mask-type:luminance" maskUnits="userSpaceOnUse" x="0" y="0" width="40" height="40">
<path d="M30.625 0H9.375C4.19733 0 0 4.19733 0 9.375V30.625C0 35.8027 4.19733 40 9.375 40H30.625C35.8027 40 40 35.8027 40 30.625V9.375C40 4.19733 35.8027 0 30.625 0Z" fill="white"/>
</mask>
<g mask="url(#mask0_3_106)">
<path d="M30.3174 0H9.06738C3.88971 0 -0.307617 4.19733 -0.307617 9.375V30.625C-0.307617 35.8027 3.88971 40 9.06738 40H30.3174C35.4951 40 39.6924 35.8027 39.6924 30.625V9.375C39.6924 4.19733 35.4951 0 30.3174 0Z" fill="black"/>
<path d="M9.375 0C4.19733 0 0 4.19733 0 9.375V30.625C0 35.8027 4.19733 40 9.375 40H26.3219C26.0439 39.1808 25.8262 37.8834 25.7037 36.4027C25.5983 35.1289 25.5633 33.7197 25.6217 32.3605C25.6059 32.1595 25.5964 32.0289 25.5964 32.0289C25.5964 32.0289 25.3036 30.0586 24.8822 28.44C24.6956 27.7216 24.4833 27.0719 24.2603 26.6953C24.1455 26.5011 24.2728 25.703 24.5933 24.5209C24.7808 24.8445 25.5719 26.2291 25.7308 26.6753C25.9097 27.1797 25.9472 27.3242 25.9472 27.3242C25.9472 27.3242 25.5133 25.0942 24.8014 23.793C24.9575 23.2669 25.1439 22.6855 25.3548 22.0639C25.6014 22.4962 26.1619 23.4891 26.3644 23.9595C26.3831 24.0031 26.4 24.0441 26.4123 24.0778C26.4411 24.1594 26.4653 24.2286 26.487 24.292C26.6012 24.623 26.6291 24.7283 26.6291 24.7283C26.6291 24.7283 26.5867 24.5117 26.508 24.1777C26.4747 24.0366 26.4333 23.8706 26.3872 23.6939C26.2078 23.005 25.9353 22.1031 25.5864 21.3964C26.482 16.7411 29.3647 10.6454 32.4703 7.35452C32.738 7.07116 33.0069 6.80589 33.2763 6.5668C35.0917 4.95741 36.9312 4.4138 38.4505 5.76711C39.5495 6.74645 39.9992 8.09916 40 9.65631V9.375C40 4.19733 35.8027 0 30.625 0H9.375Z" fill="#D9D9D9"/>
<path d="M9.375 0C4.19733 0 0 4.19733 0 9.375V30.625C0 35.8027 4.19733 40 9.375 40H26.3219C26.0439 39.1808 25.8262 37.8834 25.7037 36.4027C25.5983 35.1289 25.5633 33.7197 25.6217 32.3605C25.6059 32.1595 25.5964 32.0289 25.5964 32.0289C25.5964 32.0289 25.3036 30.0586 24.8822 28.44C24.6956 27.7216 24.4833 27.0719 24.2603 26.6953C24.1455 26.5011 24.2728 25.703 24.5933 24.5209C24.7808 24.8445 25.5719 26.2291 25.7308 26.6753C25.9097 27.1797 25.9472 27.3242 25.9472 27.3242C25.9472 27.3242 25.5133 25.0942 24.8014 23.793C24.9575 23.2669 25.1439 22.6855 25.3548 22.0639C25.6014 22.4962 26.1619 23.4891 26.3644 23.9595C26.3831 24.0031 26.4 24.0441 26.4123 24.0778C26.4411 24.1594 26.4653 24.2286 26.487 24.292C26.6012 24.623 26.6291 24.7283 26.6291 24.7283C26.6291 24.7283 26.5867 24.5117 26.508 24.1777C26.4747 24.0366 26.4333 23.8706 26.3872 23.6939C26.2078 23.005 25.9353 22.1031 25.5864 21.3964C26.482 16.7411 29.3647 10.6454 32.4703 7.35452C32.738 7.07116 33.0069 6.80589 33.2763 6.5668C35.0917 4.95741 36.9312 4.4138 38.4505 5.76711C39.5495 6.74645 39.9992 8.09916 40 9.65631V9.375C40 4.19733 35.8027 0 30.625 0H9.375Z" fill="black"/>
<path d="M38.4504 5.76711C36.9312 4.4138 35.0917 4.95741 33.2762 6.5668C33.0068 6.80589 32.7379 7.07116 32.4703 7.35452C29.3646 10.6454 26.482 16.7411 25.5864 21.3964C25.9353 22.1031 26.2078 23.005 26.3871 23.6939C26.4332 23.8706 26.4746 24.0366 26.5079 24.1777C26.5867 24.5117 26.629 24.7283 26.629 24.7283C26.629 24.7283 26.6012 24.623 26.487 24.292C26.4653 24.2286 26.4411 24.1594 26.4123 24.0778C26.4 24.0441 26.3831 24.0031 26.3643 23.9595C26.1618 23.4891 25.6014 22.4963 25.3548 22.0639C25.1439 22.6855 24.9575 23.2669 24.8014 23.793C25.5132 25.0942 25.9471 27.3242 25.9471 27.3242C25.9471 27.3242 25.9096 27.1797 25.7307 26.6753C25.5718 26.2291 24.7807 24.8445 24.5932 24.5209C24.2728 25.703 24.1454 26.5011 24.2603 26.6953C24.4832 27.0719 24.6956 27.7216 24.8821 28.44C25.3036 30.0586 25.5964 32.0289 25.5964 32.0289C25.5964 32.0289 25.6059 32.1595 25.6217 32.3605C25.5632 33.7197 25.5982 35.1289 25.7037 36.4027C25.8432 38.0888 26.1061 39.5373 26.4411 40.3125L26.6684 40.1886C26.1765 38.6614 25.9767 36.6598 26.0642 34.3514C26.1965 30.8231 27.0095 26.5681 28.5114 22.1333C31.0489 15.4385 34.5695 10.067 37.7917 7.50177C34.8548 10.1511 30.88 18.7266 29.6901 21.9022C28.3579 25.4583 27.4137 28.7955 26.8448 31.9927C27.8265 28.9953 31.0007 27.7069 31.0007 27.7069C31.0007 27.7069 32.5576 25.7891 34.377 23.0491C33.2871 23.2973 31.4976 23.7223 30.8981 23.9739C30.014 24.3444 29.7757 24.4708 29.7757 24.4708C29.7757 24.4708 32.6398 22.7286 35.097 21.9398C38.4764 16.6234 42.1579 9.0708 38.4504 5.76711Z" fill="white"/>
<path d="M4.45628 7.65625C3.97767 7.65625 3.58848 7.79605 3.29013 8.0755C2.99177 8.3552 2.84041 8.72183 2.84041 9.17105C2.84041 9.40386 2.878 9.61612 2.95206 9.81062C3.02612 10.0055 3.14138 10.1861 3.29633 10.3492C3.45128 10.5125 3.76144 10.7343 4.22367 11.0163C4.79087 11.358 5.16206 11.6353 5.3402 11.8518C5.51848 12.0681 5.60694 12.2948 5.60694 12.5311C5.60694 12.8476 5.50136 13.1002 5.28439 13.2901C5.06703 13.48 4.77636 13.5747 4.41597 13.5747C4.03584 13.5747 3.70473 13.4425 3.42039 13.1799C3.13605 12.917 2.99252 12.5692 2.98928 12.1333H2.8125V13.7154H2.98928C3.04325 13.5656 3.11794 13.489 3.21569 13.489C3.26272 13.489 3.37287 13.521 3.54445 13.5808C3.96191 13.7273 4.30469 13.7981 4.57414 13.7981C5.0385 13.7981 5.43488 13.6376 5.76511 13.3115C6.09486 12.9855 6.26136 12.5923 6.26136 12.1333C6.26136 11.7774 6.15144 11.4607 5.9357 11.1847C5.71995 10.9083 5.30039 10.5868 4.67339 10.2176C4.13386 9.8978 3.78364 9.6373 3.62198 9.43422C3.46009 9.23144 3.37697 9.00713 3.37697 8.76098C3.37697 8.49475 3.47609 8.28089 3.67161 8.12141C3.86713 7.96178 4.12331 7.8827 4.44387 7.8827C4.80464 7.8827 5.10536 7.98834 5.34331 8.20097C5.58102 8.41395 5.71847 8.70911 5.75891 9.08842H5.9357V7.71745H5.77131C5.75122 7.78734 5.73261 7.83203 5.71548 7.85211C5.69886 7.87206 5.66686 7.8827 5.61934 7.8827C5.56216 7.8827 5.46017 7.85895 5.31541 7.81231C5.00525 7.70925 4.7193 7.65625 4.45628 7.65625ZM10.2344 7.65625C9.65116 7.65625 9.12167 7.79188 8.6433 8.06325C8.16417 8.33414 7.78492 8.7103 7.50505 9.18941C7.2253 9.66847 7.08634 10.1773 7.08634 10.7195C7.08634 11.448 7.32802 12.097 7.8152 12.6658C8.30262 13.2343 8.8867 13.5885 9.56444 13.7246C9.71939 13.8043 9.94108 14.0099 10.2313 14.3428C10.5583 14.7184 10.8349 14.9893 11.0625 15.1507C11.2897 15.3121 11.5351 15.4304 11.7944 15.5087C12.0539 15.5867 12.3346 15.625 12.638 15.625C13.0055 15.625 13.3345 15.562 13.6243 15.4322L13.5591 15.2731C13.3909 15.333 13.2115 15.3618 13.0226 15.3618C12.7662 15.3618 12.507 15.2784 12.2472 15.1109C11.9878 14.943 11.6634 14.6226 11.2765 14.15C11.0946 13.9235 10.969 13.7807 10.8981 13.7246C11.6396 13.5818 12.2493 13.2272 12.7248 12.6597C13.2003 12.0924 13.4382 11.4451 13.4382 10.7195C13.4382 9.85802 13.1275 9.134 12.5108 8.5437C11.8937 7.95336 11.1347 7.65625 10.2344 7.65625ZM13.8414 7.65625L13.8507 7.84292C14.239 7.84292 14.4565 7.95578 14.5051 8.18261C14.5232 8.26377 14.5315 8.41361 14.533 8.62939L14.5299 12.7576C14.5267 13.0659 14.4822 13.2628 14.3965 13.3482C14.3108 13.433 14.1659 13.4862 13.9561 13.5073L13.9468 13.694H17.8175L17.9167 12.7576H17.74C17.6895 13.0127 17.5737 13.1954 17.3895 13.2992C17.2047 13.4038 16.8781 13.4553 16.4062 13.4553H16.0403C15.6158 13.4553 15.3702 13.3039 15.3053 12.9994C15.2919 12.9391 15.2873 12.8745 15.2867 12.8035L15.3022 8.62939C15.3021 8.32156 15.3415 8.11528 15.4231 8.0143C15.5056 7.91367 15.6544 7.85736 15.8697 7.84292L15.8605 7.65625H13.8414ZM10.2964 7.8827C10.9541 7.8827 11.4912 8.13831 11.9061 8.65387C12.3208 9.16961 12.5264 9.87647 12.5264 10.7715C12.5264 11.6197 12.3178 12.2988 11.8999 12.8096C11.4819 13.3203 10.9256 13.5747 10.2344 13.5747C9.57027 13.5747 9.03172 13.3123 8.61848 12.7851C8.20561 12.2579 8.00128 11.5735 8.00128 10.7317C8.00128 9.86681 8.20809 9.17444 8.62469 8.65694C9.04103 8.13998 9.59855 7.8827 10.2964 7.8827ZM19.1977 8.77016C19.1033 8.77016 19.0313 8.80162 18.9775 8.86503C18.9223 8.92819 18.9055 9.00469 18.9247 9.09761C18.9433 9.18773 18.9948 9.26672 19.0767 9.33323C19.1581 9.39969 19.2459 9.43422 19.3403 9.43422C19.4316 9.43422 19.5012 9.39969 19.5512 9.33323C19.6012 9.26672 19.6164 9.18773 19.5978 9.09761C19.5784 9.00469 19.5287 8.92819 19.452 8.86503C19.3744 8.80162 19.2889 8.77016 19.1977 8.77016ZM21.7502 9.40363C21.5897 10.0125 21.242 10.342 20.7081 10.3951L20.7142 10.5696H21.3377L21.3253 12.6321C21.3262 12.9848 21.3372 13.2195 21.3625 13.339C21.4239 13.6251 21.6133 13.7705 21.93 13.7705C22.3884 13.7705 22.8694 13.495 23.3722 12.9443L23.2203 12.8157C22.8572 13.1784 22.5361 13.3605 22.2558 13.3605C22.0834 13.3605 21.9766 13.2627 21.9362 13.0697C21.9252 13.0229 21.9208 12.9681 21.9208 12.9045L21.927 10.5696H22.8791L22.8698 10.2911H21.93V9.40363H21.7502ZM25.4316 10.1809C24.8991 10.1809 24.4658 10.436 24.1291 10.9429C23.7939 11.4507 23.6902 12.0132 23.822 12.6321C23.8995 12.9947 24.0539 13.2756 24.2903 13.4737C24.5262 13.6716 24.8256 13.7705 25.1834 13.7705C25.5167 13.7705 25.9808 13.6873 26.1759 13.5196C26.3717 13.352 26.5522 13.0805 26.7188 12.7086L26.5853 12.5709C26.3197 13.0533 25.7833 13.2962 25.3789 13.2962C24.8228 13.2962 24.4823 12.9952 24.3555 12.3965C24.3389 12.3201 24.3266 12.238 24.3181 12.1517C24.9797 12.0483 25.4809 11.8654 25.8194 11.6008C26.1573 11.3362 26.4969 11.0557 26.4334 10.7593C26.3956 10.5832 26.303 10.4447 26.1605 10.34C26.0161 10.2354 25.6411 10.1809 25.4316 10.1809ZM19.6102 10.2023L18.4627 10.4625V10.6644L18.8595 10.6155C19.0519 10.6155 19.165 10.7014 19.2008 10.8725C19.2128 10.9298 19.2203 11.0102 19.2225 11.1112L19.21 12.9626C19.2069 13.2188 19.178 13.3678 19.1202 13.4125C19.0617 13.4573 18.9077 13.4798 18.658 13.4798L18.6517 13.6542H20.4723L20.4692 13.4798C20.2163 13.4798 20.0523 13.4601 19.9792 13.4217C19.9073 13.3835 19.858 13.3139 19.8366 13.2074C19.82 13.1307 19.8128 12.9985 19.8117 12.8157L19.818 10.2023H19.6102ZM25.1402 10.5451C25.2509 10.5451 25.358 10.5873 25.4658 10.6705C25.572 10.7535 25.6369 10.8458 25.658 10.946C25.7619 11.4382 25.3195 11.7785 24.3244 11.9681C24.2959 11.6092 24.3591 11.2833 24.5198 10.9888C24.6794 10.6945 24.8872 10.5451 25.1402 10.5451Z" fill="white"/>
</g>
</g>
<defs>
<clipPath id="clip0_3_106">
<rect width="40" height="40" fill="white"/>
</clipPath>
</defs>
</svg>
