<svg width="41" height="40" viewBox="0 0 41 40" fill="none" xmlns="http://www.w3.org/2000/svg">
<g clip-path="url(#clip0_2_54)">
<path d="M31.2917 0H10.0417C4.86408 0 0.666748 4.19733 0.666748 9.375V30.625C0.666748 35.8027 4.86408 40 10.0417 40H31.2917C36.4694 40 40.6667 35.8027 40.6667 30.625V9.375C40.6667 4.19733 36.4694 0 31.2917 0Z" fill="black"/>
<path d="M36.1492 9.00025L21.488 35.217C21.1852 35.7584 20.4075 35.7616 20.1003 35.223L5.14836 9.00276C4.81362 8.41578 5.31556 7.70476 5.98075 7.82367L20.6577 10.4471C20.7513 10.4638 20.8472 10.4637 20.9408 10.4466L35.3108 7.82742C35.9738 7.70659 36.478 8.41209 36.1492 9.00025Z" fill="url(#paint0_linear_2_54)"/>
<path d="M27.649 4.38269L16.7994 6.50866C16.6209 6.5436 16.4889 6.69472 16.4783 6.8761L15.8108 18.1481C15.7951 18.4136 16.0389 18.6197 16.298 18.5598L19.3187 17.8628C19.6014 17.7977 19.8567 18.0466 19.7987 18.3308L18.9012 22.7255C18.8408 23.0213 19.1186 23.2741 19.4073 23.1864L21.2731 22.6195C21.5623 22.5317 21.8403 22.7853 21.779 23.0814L20.3528 29.9844C20.2636 30.4163 20.838 30.6517 21.0775 30.2814L21.2375 30.0342L30.0784 12.3905C30.2265 12.0951 29.9712 11.7582 29.6467 11.8208L26.5375 12.4209C26.2453 12.4773 25.9967 12.2052 26.079 11.9193L28.1086 4.8841C28.1911 4.59774 27.9415 4.32539 27.649 4.38269Z" fill="url(#paint1_linear_2_54)"/>
</g>
<defs>
<linearGradient id="paint0_linear_2_54" x1="4.7833" y1="6.88671" x2="23.0303" y2="31.6677" gradientUnits="userSpaceOnUse">
<stop stop-color="white"/>
<stop offset="1" stop-color="#7A7A7A"/>
</linearGradient>
<linearGradient id="paint1_linear_2_54" x1="19.8153" y1="4.95989" x2="23.1161" y2="27.6031" gradientUnits="userSpaceOnUse">
<stop stop-color="white"/>
<stop offset="0.0833333" stop-color="white"/>
<stop offset="1" stop-color="#DDDDDD"/>
</linearGradient>
<clipPath id="clip0_2_54">
<rect width="40" height="40" fill="white" transform="translate(0.666748)"/>
</clipPath>
</defs>
</svg>
